<?xml version="1.0" encoding="UTF-8"?>
<!-- Generator: Adobe Illustrator 26.1.0, SVG Export Plug-In . SVG Version: 6.00 Build 0)  -->
<svg xmlns="http://www.w3.org/2000/svg" xmlns:xlink="http://www.w3.org/1999/xlink" version="1.1" id="Layer_1" x="0px" y="0px" width="641.363px" height="611.033px" viewBox="0 0 641.363 611.033" xml:space="preserve">
<path id="_x23_000000" d="M640.823,232.596c-1.288-3.965-4.652-6.799-8.774-7.397l-208.415-30.284L330.428,6.059l-0.002-0.004  C328.581,2.32,324.847,0,320.682,0c-4.165,0-7.9,2.32-9.747,6.059l-93.206,188.856L9.312,225.199  c-4.129,0.601-7.491,3.44-8.776,7.41c-1.284,3.97-0.222,8.241,2.755,11.129l150.81,147.004l-35.603,207.582  c-0.7,4.107,0.959,8.178,4.331,10.624c3.37,2.447,7.756,2.762,11.442,0.824l186.411-98.002l186.397,97.995  c1.609,0.849,3.351,1.268,5.083,1.268c2.244,0,4.474-0.704,6.38-2.09c3.378-2.455,5.032-6.536,4.321-10.629l-35.602-207.572  L638.071,243.74C641.057,240.831,642.111,236.561,640.823,232.596z"></path>
<path id="_x23_000000_00000118391545051653606580000007585823368849476497_" d="M275.672,238.21  c-15.6,0-20.799,28.062-20.799,62.678s5.2,62.678,20.799,62.678s20.8-28.062,20.8-62.678S291.272,238.21,275.672,238.21z   M275.672,285.401c-5.188,0-9.393-7.623-9.393-17.025c0-9.403,4.206-17.025,9.393-17.025c5.188,0,9.393,7.623,9.393,17.025  C285.065,277.778,280.86,285.401,275.672,285.401z M365.691,238.21c-15.6,0-20.799,28.062-20.799,62.678s5.2,62.678,20.799,62.678  s20.8-28.062,20.8-62.678S381.291,238.21,365.691,238.21z M365.691,285.401c-5.188,0-9.393-7.623-9.393-17.025  c0-9.403,4.206-17.025,9.393-17.025c5.188,0,9.393,7.623,9.393,17.025C375.085,277.778,370.879,285.401,365.691,285.401z   M640.823,232.596c-1.288-3.965-4.652-6.799-8.774-7.397l-208.415-30.284L330.428,6.059l-0.002-0.004  C328.581,2.32,324.847,0,320.682,0c-4.165,0-7.9,2.32-9.747,6.059l-93.206,188.856L9.312,225.199  c-4.129,0.601-7.491,3.44-8.776,7.41c-1.284,3.97-0.222,8.241,2.755,11.129l150.81,147.004l-35.603,207.582  c-0.7,4.107,0.959,8.178,4.331,10.624c3.37,2.447,7.756,2.762,11.442,0.824l186.411-98.002l186.397,97.995  c1.609,0.849,3.351,1.268,5.083,1.268c2.244,0,4.474-0.704,6.38-2.09c3.378-2.455,5.032-6.536,4.321-10.629l-35.602-207.572  L638.071,243.74C641.057,240.831,642.111,236.561,640.823,232.596z M606.781,244.725l-138.13,134.643  c-2.545,2.476-3.721,6.047-3.133,9.627l32.609,190.128c0.159,0.925-0.812,1.631-1.644,1.194L325.71,490.536  c-3.147-1.642-6.907-1.643-10.086,0.015l-170.746,89.767c-0.831,0.437-1.802-0.269-1.644-1.194l32.609-190.125  c0.607-3.531-0.563-7.131-3.125-9.624L34.583,244.725c-0.672-0.655-0.301-1.797,0.628-1.932l190.919-27.742  c3.547-0.523,6.605-2.756,8.163-5.943l85.373-172.985c0.416-0.842,1.616-0.842,2.032,0l85.389,173.018  c1.582,3.179,4.623,5.387,8.167,5.913l190.9,27.739C607.083,242.928,607.454,244.07,606.781,244.725z"></path>
<path id="_x23_F7EC13" fill="#F7EC13" d="M606.781,244.725c0.672-0.655,0.301-1.797-0.628-1.932l-190.9-27.739  c-3.544-0.526-6.585-2.735-8.167-5.913L321.697,36.123c-0.416-0.842-1.616-0.842-2.032,0l-85.373,172.985  c-1.559,3.187-4.616,5.421-8.163,5.943L35.21,242.793c-0.929,0.135-1.3,1.277-0.628,1.932l138.136,134.65  c2.562,2.492,3.732,6.092,3.125,9.624l-32.609,190.125c-0.159,0.925,0.813,1.631,1.644,1.194l170.746-89.767  c3.179-1.658,6.939-1.658,10.086-0.015l170.775,89.781c0.831,0.437,1.802-0.269,1.644-1.194l-32.609-190.128  c-0.588-3.58,0.588-7.151,3.133-9.627L606.781,244.725z M275.672,363.566c-15.6,0-20.799-28.062-20.799-62.678  s5.2-62.678,20.799-62.678s20.8,28.062,20.8,62.678S291.272,363.566,275.672,363.566z M365.691,363.566  c-15.6,0-20.799-28.062-20.799-62.678s5.2-62.678,20.799-62.678s20.8,28.062,20.8,62.678S381.291,363.566,365.691,363.566z"></path>
<path id="_x23_F2F2F3" fill="#F2F2F3" d="M375.085,268.375c0,9.403-4.206,17.025-9.393,17.025c-5.188,0-9.393-7.623-9.393-17.025  c0-9.403,4.206-17.025,9.393-17.025C370.879,251.35,375.085,258.972,375.085,268.375z M275.672,251.35  c-5.188,0-9.393,7.623-9.393,17.025c0,9.403,4.206,17.025,9.393,17.025c5.188,0,9.393-7.623,9.393-17.025  C285.065,258.972,280.86,251.35,275.672,251.35z"></path>
<g>
</g>
<g>
</g>
<g>
</g>
<g>
</g>
<g>
</g>
</svg>
